<svg xmlns="http://www.w3.org/2000/svg" viewBox="0 0 12 12" shape-rendering="crispEdges">
  <rect width="12" height="12" fill="#0a0b0c"/>
  <g fill="#e9e98c">
    <rect x="2" y="9" width="1" height="1"/><rect x="2" y="10" width="1" height="1"/>
    <rect x="3" y="7" width="1" height="1"/><rect x="3" y="8" width="1" height="1"/>
    <rect x="4" y="5" width="1" height="1"/><rect x="4" y="6" width="1" height="1"/>
    <rect x="5" y="3" width="1" height="1"/><rect x="5" y="4" width="1" height="1"/>
    <rect x="6" y="3" width="1" height="1"/><rect x="6" y="4" width="1" height="1"/>
    <rect x="7" y="5" width="1" height="1"/><rect x="7" y="6" width="1" height="1"/>
    <rect x="8" y="7" width="1" height="1"/><rect x="8" y="8" width="1" height="1"/>
    <rect x="9" y="9" width="1" height="1"/><rect x="9" y="10" width="1" height="1"/>
    <rect x="5" y="2" width="1" height="1"/><rect x="6" y="2" width="1" height="1"/>
    <rect x="4" y="7" width="1" height="1"/><rect x="5" y="7" width="1" height="1"/>
    <rect x="6" y="7" width="1" height="1"/><rect x="7" y="7" width="1" height="1"/>
    <rect x="1" y="11" width="1" height="1"/><rect x="2" y="11" width="1" height="1"/>
    <rect x="9" y="11" width="1" height="1"/><rect x="10" y="11" width="1" height="1"/>
    <rect x="10" y="10" width="1" height="1"/>
  </g>
  <g fill="#e9e98c" opacity="0.75"><rect x="8" y="1" width="1" height="1"/><rect x="9" y="0" width="1" height="1"/></g>
</svg>
